<svg width="1310" height="982" viewBox="0 0 1310 982" fill="none" xmlns="http://www.w3.org/2000/svg">
<g opacity="0.8">
<rect width="7.81342" height="235.379" rx="3.90671" transform="matrix(-0.819152 0.573576 0.573576 0.819152 110.354 -12.0086)" fill="url(#paint0_linear_1_331)"/>
<rect width="5.86007" height="176.779" rx="2.93003" transform="matrix(-0.819152 0.573576 0.573576 0.819152 473.055 -29.5888)" fill="url(#paint1_linear_1_331)"/>
<rect width="8.7901" height="68.3675" rx="4.39505" transform="matrix(-0.819152 0.573576 0.573576 0.819152 771.389 127.656)" fill="url(#paint2_linear_1_331)"/>
<rect width="29.3003" height="390.671" rx="14.6502" transform="matrix(-0.819152 0.573576 0.573576 0.819152 144.559 -30.5654)" fill="url(#paint3_linear_1_331)"/>
<rect width="22.4636" height="293.003" rx="11.2318" transform="matrix(-0.819152 0.573576 0.573576 0.819152 189.746 -138)" fill="url(#paint4_linear_1_331)"/>
<rect width="18.5569" height="390.671" rx="9.27844" transform="matrix(-0.819152 0.573576 0.573576 0.819152 1085.09 -110.653)" fill="url(#paint5_linear_1_331)"/>
<rect width="18.5569" height="390.671" rx="9.27844" transform="matrix(-0.819152 0.573576 0.573576 0.819152 826.27 586.695)" fill="url(#paint6_linear_1_331)"/>
<rect opacity="0.312783" width="4.73397" height="235.379" rx="2.36699" transform="matrix(-0.809017 0.587785 0.587785 0.809017 431.064 526.141)" fill="url(#paint7_linear_1_331)"/>
<rect opacity="0.312783" width="4.73397" height="235.379" rx="2.36699" transform="matrix(-0.809017 0.587785 0.587785 0.809017 573.659 875.792)" fill="url(#paint8_linear_1_331)"/>
<rect opacity="0.312783" width="4.73397" height="235.379" rx="2.36699" transform="matrix(-0.809017 0.587785 0.587785 0.809017 754.345 668.736)" fill="url(#paint9_linear_1_331)"/>
<rect width="4.73397" height="97.6678" rx="2.36699" transform="matrix(-0.809017 0.587785 0.587785 0.809017 379.3 496.841)" fill="url(#paint10_linear_1_331)"/>
<rect opacity="0.312783" width="7.81342" height="235.379" rx="3.90671" transform="matrix(-0.809017 0.587785 0.587785 0.809017 564.43 578.882)" fill="url(#paint11_linear_1_331)"/>
</g>
<defs>
<linearGradient id="paint0_linear_1_331" x1="-4.43645" y1="-391.959" x2="-34.1257" y2="-391.609" gradientUnits="userSpaceOnUse">
<stop stop-color="#8468F5"/>
<stop offset="1" stop-color="#EC74E7"/>
</linearGradient>
<linearGradient id="paint1_linear_1_331" x1="24.0037" y1="-790.043" x2="-25.9778" y2="-789.726" gradientUnits="userSpaceOnUse">
<stop stop-color="#8468F5"/>
<stop offset="1" stop-color="#EC74E7"/>
</linearGradient>
<linearGradient id="paint2_linear_1_331" x1="0.10077" y1="-200.236" x2="-45.8356" y2="-197.548" gradientUnits="userSpaceOnUse">
<stop stop-color="#8468F5"/>
<stop offset="1" stop-color="#EC74E7"/>
</linearGradient>
<linearGradient id="paint3_linear_1_331" x1="-16.6367" y1="-650.554" x2="-127.908" y2="-647.592" gradientUnits="userSpaceOnUse">
<stop stop-color="#8468F5"/>
<stop offset="1" stop-color="#EC74E7"/>
</linearGradient>
<linearGradient id="paint4_linear_1_331" x1="78.193" y1="-1520.8" x2="-157.519" y2="-1518.25" gradientUnits="userSpaceOnUse">
<stop stop-color="#8468F5"/>
<stop offset="0.946455" stop-color="#E673E8"/>
<stop offset="1" stop-color="#EC74E7"/>
</linearGradient>
<linearGradient id="paint5_linear_1_331" x1="-10.5366" y1="-650.554" x2="-81.0383" y2="-649.366" gradientUnits="userSpaceOnUse">
<stop stop-color="#8468F5"/>
<stop offset="1" stop-color="#EC74E7"/>
</linearGradient>
<linearGradient id="paint6_linear_1_331" x1="-10.5366" y1="-650.554" x2="-81.0383" y2="-649.366" gradientUnits="userSpaceOnUse">
<stop stop-color="#8468F5"/>
<stop offset="1" stop-color="#EC74E7"/>
</linearGradient>
<linearGradient id="paint7_linear_1_331" x1="-2.68794" y1="-391.959" x2="-20.6776" y2="-391.83" gradientUnits="userSpaceOnUse">
<stop stop-color="#8468F5"/>
<stop offset="1" stop-color="#EC74E7"/>
</linearGradient>
<linearGradient id="paint8_linear_1_331" x1="-2.68794" y1="-391.959" x2="-20.6776" y2="-391.83" gradientUnits="userSpaceOnUse">
<stop stop-color="#8468F5"/>
<stop offset="1" stop-color="#EC74E7"/>
</linearGradient>
<linearGradient id="paint9_linear_1_331" x1="-2.68794" y1="-391.959" x2="-20.6776" y2="-391.83" gradientUnits="userSpaceOnUse">
<stop stop-color="#8468F5"/>
<stop offset="1" stop-color="#EC74E7"/>
</linearGradient>
<linearGradient id="paint10_linear_1_331" x1="-2.68794" y1="-162.639" x2="-20.6732" y2="-162.329" gradientUnits="userSpaceOnUse">
<stop stop-color="#8468F5"/>
<stop offset="1" stop-color="#EC74E7"/>
</linearGradient>
<linearGradient id="paint11_linear_1_331" x1="-4.43645" y1="-391.959" x2="-34.1257" y2="-391.609" gradientUnits="userSpaceOnUse">
<stop stop-color="#8468F5"/>
<stop offset="1" stop-color="#EC74E7"/>
</linearGradient>
</defs>
</svg>
